# Blender v3.0.0 OBJ File: 'treepieces.blend'
# www.blender.org
mtllib 3 branches L.mtl
o 3_branches_(L)_Cube.024
v -0.543215 1.000000 -0.543215
v -0.543214 -1.000000 -0.543215
v 0.543214 1.000000 -0.543214
v 0.543215 -1.000000 -0.543215
v -0.543215 1.000000 0.543215
v -0.543214 -1.000000 0.543214
v 0.543214 1.000000 0.543215
v 0.543215 -1.000000 0.543215
v 0.760500 1.000000 0.000000
v 0.760501 -1.000000 -0.000000
v -0.760500 -1.000000 -0.000000
v -0.760501 1.000000 0.000000
v 0.000000 -1.000000 -0.760500
v 0.000000 -1.000000 0.760500
v 0.022399 -1.000000 0.001821
v -0.000000 1.000000 0.760500
v -0.000000 1.000000 -0.760500
v -0.037072 1.000000 -0.004057
v 1.000000 0.543214 0.543214
v 1.000000 0.543214 -0.543215
v 1.000000 -0.543215 0.543214
v 1.000000 -0.543215 -0.543215
v -0.606464 0.093355 -0.528810
v 1.000000 -0.000000 -0.760500
v -0.639986 0.087235 -0.325402
v -0.723848 0.093175 -0.035374
v 1.000000 -0.000000 0.760500
v -0.679576 0.144009 0.234625
v -0.681032 0.049250 0.410062
v 1.000000 -0.760500 -0.000000
v 1.000000 0.760500 -0.000000
v 1.000000 0.004057 0.037072
v -0.543215 0.543215 -1.000000
v 0.543214 0.543215 -1.000000
v -0.543215 -0.543214 -1.000000
v 0.543214 -0.543215 -1.000000
v 0.760500 -0.000000 -1.000000
v -0.760500 0.000000 -1.000000
v -0.000000 0.760500 -1.000000
v -0.000000 -0.760500 -1.000000
v 0.022398 -0.001821 -1.000000
v -0.524149 0.528810 -0.528810
v 0.533471 0.533471 -0.524149
v -0.529975 -0.528810 -0.528810
v -0.722112 -0.003719 -0.761446
v 0.527644 -0.524149 -0.529975
v 0.001552 -0.732208 -0.734580
v 0.802712 0.034233 -0.700317
v 0.056866 0.732887 -0.708441
v 0.528810 -0.529975 0.527644
v -0.528810 0.528810 0.528810
v -0.528810 -0.528810 0.528810
v -0.623362 -0.007439 0.608483
v -0.000979 -0.619607 0.637023
v 0.528810 0.527644 0.533471
v 0.001551 0.689187 0.728160
v -0.618276 -0.628315 0.004209
v 0.634741 -0.605762 0.000490
v 0.706153 0.730831 -0.020129
v -0.663089 0.697521 0.001678
v 0.500000 -0.007439 0.753969
v 0.000407 0.097530 0.831558
v -0.528810 -0.057274 0.682525
v -0.272844 -0.028102 0.759697
vt 0.625000 0.500000
vt 0.748252 0.500000
vt 0.749066 0.616469
vt 0.625000 0.627622
vt 0.562500 0.500000
vt 0.562500 0.374162
vt 0.625000 0.376748
vt 0.250000 0.750000
vt 0.249581 0.630154
vt 0.375000 0.625874
vt 0.375000 0.750000
vt 0.249126 0.500000
vt 0.375000 0.500000
vt 0.125000 0.625000
vt 0.125000 0.750000
vt 0.000000 0.000000
vt 0.000000 0.000000
vt 0.000000 0.000000
vt 0.562500 0.250000
vt 0.564677 0.125661
vt 0.625000 0.125871
vt 0.625000 0.250000
vt 0.562063 0.000000
vt 0.625000 0.000000
vt 0.568138 0.875000
vt 0.564248 0.750000
vt 0.625000 0.750000
vt 0.625000 0.875000
vt 0.562063 1.000000
vt 0.625000 1.000000
vt 0.750000 0.750000
vt 0.875000 0.624129
vt 0.875000 0.750000
vt 0.875000 0.500000
vt 0.571856 0.627250
vt 0.000000 0.000000
vt 0.000000 0.000000
vt 0.000000 0.000000
vt 0.000000 0.000000
vt 0.000000 0.000000
vt 0.000000 0.000000
vt 0.000000 0.000000
vt 0.000000 0.000000
vt 0.000000 0.000000
vt 0.000000 0.000000
vt 0.000000 0.000000
vt 0.000000 0.000000
vt 0.446856 0.626376
vt 0.439248 0.750000
vt 0.375000 0.125000
vt 0.439677 0.125225
vt 0.437500 0.250000
vt 0.375000 0.250000
vt 0.375000 0.374126
vt 0.437500 0.372851
vt 0.437500 0.500000
vt 0.375000 0.875000
vt 0.443138 0.875000
vt 0.437063 1.000000
vt 0.375000 1.000000
vt 0.375000 0.000000
vt 0.437063 0.000000
vt 0.000000 0.000000
vt 0.000000 0.000000
vt 0.000000 0.000000
vt 0.000000 0.000000
vt 0.000000 0.000000
vt 0.000000 0.000000
vt 0.000000 0.000000
vt 0.000000 0.000000
vt 0.000000 0.000000
vt 0.000000 0.000000
vt 0.625000 0.500000
vt 0.748252 0.500000
vt 0.749066 0.616469
vt 0.625000 0.627622
vt 0.562500 0.500000
vt 0.562500 0.374162
vt 0.625000 0.376748
vt 0.562500 0.250000
vt 0.564677 0.125661
vt 0.625000 0.125871
vt 0.625000 0.250000
vt 0.562063 0.000000
vt 0.625000 0.000000
vt 0.568138 0.875000
vt 0.625000 0.750000
vt 0.625000 0.875000
vt 0.562063 1.000000
vt 0.625000 1.000000
vt 0.750000 0.750000
vt 0.875000 0.624129
vt 0.875000 0.750000
vt 0.875000 0.500000
vt 0.571856 0.627250
vt 0.125000 0.500000
vt 0.249126 0.500000
vt 0.249581 0.630154
vt 0.125000 0.625000
vt 0.250000 0.750000
vt 0.375000 0.625874
vt 0.375000 0.750000
vt 0.375000 0.500000
vt 0.125000 0.750000
vt 0.446856 0.626376
vt 0.439248 0.750000
vt 0.375000 0.125000
vt 0.439677 0.125225
vt 0.437500 0.250000
vt 0.375000 0.250000
vt 0.375000 0.374126
vt 0.437500 0.372851
vt 0.437500 0.500000
vt 0.375000 0.875000
vt 0.443138 0.875000
vt 0.437063 1.000000
vt 0.375000 1.000000
vt 0.375000 0.000000
vt 0.437063 0.000000
vn -0.0000 1.0000 0.0000
vn -0.9454 -0.1484 -0.2903
vn 0.0000 -1.0000 0.0000
vn -0.3529 -0.0630 0.9335
vn 0.3512 -0.0560 0.9346
vn 0.9389 -0.0813 -0.3343
vn 0.9420 -0.1002 0.3204
vn -0.3117 -0.1169 -0.9430
vn 0.3541 -0.0677 -0.9328
vn -0.9785 -0.1650 0.1241
vn -0.9637 0.1275 0.2347
vn -0.8717 -0.1072 0.4781
vn -0.9538 -0.2063 0.2183
vn 0.3570 0.0558 -0.9324
vn -0.2749 0.1579 0.9484
vn -0.9504 0.1809 -0.2531
vn 0.9482 0.1586 0.2751
vn -0.9498 0.1796 0.2561
vn -0.3561 0.0580 -0.9326
vn 0.2752 0.1600 0.9480
vn 0.9485 0.1584 -0.2745
vn -0.9469 -0.1416 0.2887
vn -0.9500 -0.1539 -0.2716
vn -0.9772 -0.1156 -0.1782
vn -0.9521 0.1157 -0.2832
vn -0.9088 0.1718 0.3801
vn -0.9534 0.2687 0.1372
vn -0.9208 0.2111 0.3279
vn -0.9739 -0.1324 0.1846
vn -0.2418 -0.3016 0.9222
vn -0.5292 0.2153 0.8207
vn -0.1324 -0.2593 0.9567
vn 0.4140 0.3277 0.8493
vn 0.2478 -0.3735 0.8939
vn 0.0944 -0.2608 0.9608
vn -0.6722 -0.2295 0.7039
vn -0.3721 0.1823 0.9101
vn 0.1858 0.1688 0.9680
vn -0.3052 0.2416 0.9211
vn -0.9708 0.1835 -0.1545
vn 1.0000 -0.0000 -0.0000
vn -0.0244 0.3766 0.9260
vn -0.1953 -0.9507 0.2410
vn -0.2009 -0.9487 -0.2441
vn -0.1000 0.3286 -0.9391
vn -0.1276 -0.3007 -0.9451
vn -0.0689 0.9352 0.3474
vn -0.0478 0.9314 -0.3609
vn -0.0233 -0.3847 0.9227
vn 0.0000 0.0000 -1.0000
vn 0.3747 0.9269 0.0221
vn -0.3536 -0.9334 0.0612
vn -0.9356 0.3429 0.0845
vn 0.9128 -0.4085 -0.0033
vn -0.9365 -0.3429 0.0733
vn -0.3377 0.9374 0.0853
vn 0.3577 -0.9314 0.0668
vn 0.9016 0.4295 -0.0513
usemtl Material.030
s off
f 1/1/1 12/2/1 18/3/1 17/4/1
f 42/5/2 60/6/2 12/7/2 1/1/2
f 10/8/3 15/9/3 13/10/3 4/11/3
f 13/10/3 15/9/3 11/12/3 2/13/3
f 14/14/3 15/9/3 10/8/3 8/15/3
f 14/16/3 6/17/3 15/18/3
f 51/19/4 56/20/4 16/21/4 5/22/4
f 56/20/5 55/23/5 7/24/5 16/21/5
f 59/25/6 43/26/6 3/27/6 9/28/6
f 55/29/7 59/25/7 9/28/7 7/30/7
f 9/31/1 18/3/1 16/32/1 7/33/1
f 16/32/1 18/3/1 12/2/1 5/34/1
f 17/4/1 18/3/1 9/31/1 3/27/1
f 49/35/8 42/5/8 1/1/8 17/4/8
f 43/26/9 49/35/9 17/4/9 3/27/9
f 29/36/10 28/37/10 57/38/10 52/39/10
f 6/17/3 11/40/3 15/18/3
f 26/41/11 28/37/11 51/42/11 60/43/11
f 23/44/12 45/45/12 44/46/12
f 29/36/13 52/39/13 53/47/13
f 13/10/14 47/48/14 46/49/14 4/11/14
f 14/50/15 54/51/15 52/52/15 6/53/15
f 11/54/16 57/55/16 44/56/16 2/13/16
f 10/57/17 58/58/17 50/59/17 8/60/17
f 6/53/18 52/52/18 57/55/18 11/54/18
f 2/13/19 44/56/19 47/48/19 13/10/19
f 8/61/20 50/62/20 54/51/20 14/50/20
f 4/11/21 46/49/21 58/58/21 10/57/21
f 12/7/22 60/6/22 51/19/22 5/22/22
f 26/41/23 25/63/23 57/38/23
f 57/38/24 25/63/24 23/44/24 44/46/24
f 42/64/25 25/63/25 26/41/25 60/43/25
f 42/64/26 45/45/26 23/44/26
f 51/42/27 28/37/27 29/36/27
f 53/47/28 51/42/28 29/36/28
f 57/38/29 28/37/29 26/41/29
f 54/65/30 64/66/30 63/67/30 52/39/30
f 51/42/31 53/47/31 63/67/31
f 54/65/32 62/68/32 64/66/32
f 61/69/33 55/70/33 56/71/33
f 54/65/34 50/72/34 61/69/34
f 54/65/35 61/69/35 62/68/35
f 63/67/36 53/47/36 52/39/36
f 64/66/37 62/68/37 56/71/37 51/42/37
f 62/68/38 61/69/38 56/71/38
f 63/67/39 64/66/39 51/42/39
f 23/44/40 25/63/40 42/64/40
usemtl Material.028
f 19/73/41 27/74/41 32/75/41 31/76/41
f 55/77/42 61/78/42 27/79/42 19/73/42
f 50/80/43 58/81/43 30/82/43 21/83/43
f 58/81/44 46/84/44 22/85/44 30/82/44
f 48/86/45 43/26/45 20/87/45 24/88/45
f 46/89/46 48/86/46 24/88/46 22/90/46
f 24/91/41 32/75/41 30/92/41 22/93/41
f 30/92/41 32/75/41 27/74/41 21/94/41
f 31/76/41 32/75/41 24/91/41 20/87/41
f 59/95/47 55/77/47 19/73/47 31/76/47
f 43/26/48 59/95/48 31/76/48 20/87/48
f 27/79/49 61/78/49 50/80/49 21/83/49
usemtl Material.029
f 35/96/50 38/97/50 41/98/50 40/99/50
f 37/100/50 41/98/50 39/101/50 34/102/50
f 39/101/50 41/98/50 38/97/50 33/103/50
f 40/99/50 41/98/50 37/100/50 36/104/50
f 39/101/51 49/105/51 43/106/51 34/102/51
f 40/107/52 47/108/52 44/109/52 35/110/52
f 38/111/53 45/112/53 42/113/53 33/103/53
f 37/114/54 48/115/54 46/116/54 36/117/54
f 35/110/55 44/109/55 45/112/55 38/111/55
f 33/103/56 42/113/56 49/105/56 39/101/56
f 36/118/57 46/119/57 47/108/57 40/107/57
f 34/102/58 43/106/58 48/115/58 37/114/58
