# Blender v3.0.0 OBJ File: 'treepieces.blend'
# www.blender.org
mtllib 4 branches.mtl
o 4_branches_Cube.022
v -0.543215 1.000000 -0.543215
v -0.543214 -1.000000 -0.543215
v 0.543214 1.000000 -0.543214
v 0.543215 -1.000000 -0.543215
v -0.543215 1.000000 0.543215
v -0.543214 -1.000000 0.543214
v 0.543214 1.000000 0.543215
v 0.543215 -1.000000 0.543215
v 0.760500 1.000000 0.000000
v 0.760501 -1.000000 -0.000000
v -0.760500 -1.000000 -0.000000
v -0.760501 1.000000 0.000000
v 0.000000 -1.000000 -0.760500
v 0.000000 -1.000000 0.760500
v 0.022399 -1.000000 0.001821
v -0.000000 1.000000 0.760500
v -0.000000 1.000000 -0.760500
v -0.037072 1.000000 -0.004057
v 1.000000 0.543214 0.543214
v -1.000000 0.543215 0.543215
v 1.000000 0.543214 -0.543215
v -1.000000 0.543215 -0.543214
v 1.000000 -0.543215 0.543214
v -1.000000 -0.543214 0.543215
v 1.000000 -0.543215 -0.543215
v -1.000000 -0.543214 -0.543214
v 1.000000 -0.000000 -0.760500
v -1.000000 0.000000 -0.760500
v -1.000000 0.000000 0.760500
v 1.000000 -0.000000 0.760500
v -1.000000 0.760500 0.000000
v -1.000000 -0.760500 0.000000
v -1.000000 -0.001821 -0.022398
v 1.000000 -0.760500 -0.000000
v 1.000000 0.760500 -0.000000
v 1.000000 0.004057 0.037072
v -0.543215 0.543215 -1.000000
v 0.543214 0.543215 -1.000000
v -0.543215 -0.543214 -1.000000
v 0.543214 -0.543215 -1.000000
v 0.760500 -0.000000 -1.000000
v -0.760500 0.000000 -1.000000
v -0.000000 0.760500 -1.000000
v -0.000000 -0.760500 -1.000000
v 0.022398 -0.001821 -1.000000
v -0.524149 0.528810 -0.528810
v 0.533471 0.533471 -0.524149
v -0.529975 -0.528810 -0.528810
v -0.722112 -0.003719 -0.761446
v 0.527644 -0.524149 -0.529975
v 0.001552 -0.732208 -0.734580
v 0.802712 0.034233 -0.700317
v 0.056866 0.732887 -0.708441
v 0.528810 -0.529975 0.527644
v -0.528810 0.528810 0.528810
v -0.528810 -0.528810 0.528810
v -0.684190 -0.007439 0.714393
v -0.000979 -0.619607 0.637023
v 0.528810 0.527644 0.533471
v 0.001551 0.689187 0.728160
v -0.618276 -0.628315 0.004209
v 0.634741 -0.605762 0.000490
v 0.706153 0.730831 -0.020129
v -0.663089 0.697521 0.001678
v 0.500000 -0.007439 0.753969
v 0.000407 0.097530 0.831558
v -0.528810 -0.057274 0.682525
v -0.272844 -0.028102 0.759697
vt 0.625000 0.500000
vt 0.748252 0.500000
vt 0.749066 0.616469
vt 0.625000 0.627622
vt 0.562500 0.500000
vt 0.562500 0.374162
vt 0.625000 0.376748
vt 0.250000 0.750000
vt 0.249581 0.630154
vt 0.375000 0.625874
vt 0.375000 0.750000
vt 0.249126 0.500000
vt 0.375000 0.500000
vt 0.125000 0.625000
vt 0.125000 0.750000
vt 0.000000 0.000000
vt 0.000000 0.000000
vt 0.000000 0.000000
vt 0.562500 0.250000
vt 0.564677 0.125661
vt 0.625000 0.125871
vt 0.625000 0.250000
vt 0.562063 0.000000
vt 0.625000 0.000000
vt 0.568138 0.875000
vt 0.564248 0.750000
vt 0.625000 0.750000
vt 0.625000 0.875000
vt 0.562063 1.000000
vt 0.625000 1.000000
vt 0.750000 0.750000
vt 0.875000 0.624129
vt 0.875000 0.750000
vt 0.875000 0.500000
vt 0.571856 0.627250
vt 0.000000 0.000000
vt 0.446856 0.626376
vt 0.439248 0.750000
vt 0.375000 0.125000
vt 0.439677 0.125225
vt 0.437500 0.250000
vt 0.375000 0.250000
vt 0.375000 0.374126
vt 0.437500 0.372851
vt 0.437500 0.500000
vt 0.375000 0.875000
vt 0.443138 0.875000
vt 0.437063 1.000000
vt 0.375000 1.000000
vt 0.375000 0.000000
vt 0.437063 0.000000
vt 0.000000 0.000000
vt 0.000000 0.000000
vt 0.000000 0.000000
vt 0.000000 0.000000
vt 0.000000 0.000000
vt 0.000000 0.000000
vt 0.000000 0.000000
vt 0.000000 0.000000
vt 0.000000 0.000000
vt 0.000000 0.000000
vt 0.000000 0.000000
vt 0.625000 0.500000
vt 0.748252 0.500000
vt 0.749066 0.616469
vt 0.625000 0.627622
vt 0.125000 0.500000
vt 0.249126 0.500000
vt 0.249581 0.630154
vt 0.125000 0.625000
vt 0.562500 0.500000
vt 0.562500 0.374162
vt 0.625000 0.376748
vt 0.250000 0.750000
vt 0.375000 0.625874
vt 0.375000 0.750000
vt 0.375000 0.500000
vt 0.125000 0.750000
vt 0.562500 0.250000
vt 0.564677 0.125661
vt 0.625000 0.125871
vt 0.625000 0.250000
vt 0.562063 0.000000
vt 0.625000 0.000000
vt 0.568138 0.875000
vt 0.625000 0.750000
vt 0.625000 0.875000
vt 0.562063 1.000000
vt 0.625000 1.000000
vt 0.750000 0.750000
vt 0.875000 0.624129
vt 0.875000 0.750000
vt 0.875000 0.500000
vt 0.571856 0.627250
vt 0.446856 0.626376
vt 0.439248 0.750000
vt 0.375000 0.125000
vt 0.439677 0.125225
vt 0.375000 0.250000
vt 0.375000 0.374126
vt 0.437500 0.372851
vt 0.437500 0.500000
vt 0.375000 0.875000
vt 0.443138 0.875000
vt 0.437063 1.000000
vt 0.375000 1.000000
vt 0.375000 0.000000
vt 0.437063 0.000000
vt 0.125000 0.500000
vt 0.249126 0.500000
vt 0.249581 0.630154
vt 0.125000 0.625000
vt 0.250000 0.750000
vt 0.375000 0.625874
vt 0.375000 0.750000
vt 0.375000 0.500000
vt 0.125000 0.750000
vt 0.446856 0.626376
vt 0.439248 0.750000
vt 0.375000 0.125000
vt 0.439677 0.125225
vt 0.437500 0.250000
vt 0.375000 0.250000
vt 0.375000 0.374126
vt 0.437500 0.372851
vt 0.437500 0.500000
vt 0.375000 0.875000
vt 0.443138 0.875000
vt 0.437063 1.000000
vt 0.375000 1.000000
vt 0.375000 0.000000
vt 0.437063 0.000000
vn -0.0000 1.0000 0.0000
vn -0.9454 -0.1484 -0.2903
vn 0.0000 -1.0000 0.0000
vn -0.3529 -0.0630 0.9335
vn 0.3512 -0.0560 0.9346
vn 0.9389 -0.0813 -0.3343
vn 0.9420 -0.1002 0.3204
vn -0.3117 -0.1169 -0.9430
vn 0.3541 -0.0677 -0.9328
vn 0.3570 0.0558 -0.9324
vn -0.2749 0.1579 0.9484
vn -0.9504 0.1809 -0.2531
vn 0.9482 0.1586 0.2751
vn -0.9498 0.1796 0.2561
vn -0.3561 0.0580 -0.9326
vn 0.2752 0.1600 0.9480
vn 0.9485 0.1584 -0.2745
vn -0.9469 -0.1416 0.2887
vn -0.2418 -0.3016 0.9222
vn 0.2694 0.2443 0.9315
vn -0.1324 -0.2593 0.9567
vn 0.4140 0.3277 0.8493
vn 0.2478 -0.3735 0.8939
vn 0.0944 -0.2608 0.9608
vn 0.0952 -0.3085 0.9464
vn -0.3721 0.1823 0.9101
vn 0.1858 0.1688 0.9680
vn -0.3052 0.2416 0.9211
vn 1.0000 -0.0000 -0.0000
vn -1.0000 0.0000 0.0000
vn -0.0244 0.3766 0.9260
vn -0.1953 -0.9507 0.2410
vn -0.2009 -0.9487 -0.2441
vn -0.1000 0.3286 -0.9391
vn -0.1276 -0.3007 -0.9451
vn -0.0689 0.9352 0.3474
vn -0.0478 0.9314 -0.3609
vn 0.0960 0.9406 -0.3257
vn 0.1663 -0.9491 0.2676
vn 0.0815 0.3382 0.9375
vn 0.0221 -0.3847 -0.9228
vn 0.0750 -0.3433 0.9362
vn 0.0952 0.9402 0.3271
vn 0.1692 -0.9492 -0.2655
vn 0.0257 0.3817 -0.9239
vn -0.0233 -0.3847 0.9227
vn 0.0000 0.0000 -1.0000
vn 0.3747 0.9269 0.0221
vn -0.3536 -0.9334 0.0612
vn -0.9356 0.3429 0.0845
vn 0.9128 -0.4085 -0.0033
vn -0.9365 -0.3429 0.0733
vn -0.3377 0.9374 0.0853
vn 0.3577 -0.9314 0.0668
vn 0.9016 0.4295 -0.0513
usemtl Material.024
s off
f 1/1/1 12/2/1 18/3/1 17/4/1
f 46/5/2 64/6/2 12/7/2 1/1/2
f 10/8/3 15/9/3 13/10/3 4/11/3
f 13/10/3 15/9/3 11/12/3 2/13/3
f 14/14/3 15/9/3 10/8/3 8/15/3
f 14/16/3 6/17/3 15/18/3
f 55/19/4 60/20/4 16/21/4 5/22/4
f 60/20/5 59/23/5 7/24/5 16/21/5
f 63/25/6 47/26/6 3/27/6 9/28/6
f 59/29/7 63/25/7 9/28/7 7/30/7
f 9/31/1 18/3/1 16/32/1 7/33/1
f 16/32/1 18/3/1 12/2/1 5/34/1
f 17/4/1 18/3/1 9/31/1 3/27/1
f 53/35/8 46/5/8 1/1/8 17/4/8
f 47/26/9 53/35/9 17/4/9 3/27/9
f 6/17/3 11/36/3 15/18/3
f 13/10/10 51/37/10 50/38/10 4/11/10
f 14/39/11 58/40/11 56/41/11 6/42/11
f 11/43/12 61/44/12 48/45/12 2/13/12
f 10/46/13 62/47/13 54/48/13 8/49/13
f 6/42/14 56/41/14 61/44/14 11/43/14
f 2/13/15 48/45/15 51/37/15 13/10/15
f 8/50/16 54/51/16 58/40/16 14/39/16
f 4/11/17 50/38/17 62/47/17 10/46/17
f 12/7/18 64/6/18 55/19/18 5/22/18
f 58/52/19 68/53/19 67/54/19 56/55/19
f 55/56/20 57/57/20 67/54/20
f 58/52/21 66/58/21 68/53/21
f 65/59/22 59/60/22 60/61/22
f 58/52/23 54/62/23 65/59/23
f 58/52/24 65/59/24 66/58/24
f 67/54/25 57/57/25 56/55/25
f 68/53/26 66/58/26 60/61/26 55/56/26
f 66/58/27 65/59/27 60/61/27
f 67/54/28 68/53/28 55/56/28
usemtl Material.022
f 19/63/29 30/64/29 36/65/29 35/66/29
f 24/67/30 29/68/30 33/69/30 32/70/30
f 59/71/31 65/72/31 30/73/31 19/63/31
f 28/74/30 33/69/30 31/75/30 22/76/30
f 31/75/30 33/69/30 29/68/30 20/77/30
f 32/70/30 33/69/30 28/74/30 26/78/30
f 54/79/32 62/80/32 34/81/32 23/82/32
f 62/80/33 50/83/33 25/84/33 34/81/33
f 52/85/34 47/26/34 21/86/34 27/87/34
f 50/88/35 52/85/35 27/87/35 25/89/35
f 27/90/29 36/65/29 34/91/29 25/92/29
f 34/91/29 36/65/29 30/64/29 23/93/29
f 35/66/29 36/65/29 27/90/29 21/86/29
f 63/94/36 59/71/36 19/63/36 35/66/36
f 47/26/37 63/94/37 35/66/37 21/86/37
f 31/75/38 64/95/38 46/96/38 22/76/38
f 32/97/39 61/98/39 56/41/39 24/99/39
f 29/100/40 57/101/40 55/102/40 20/77/40
f 28/103/41 49/104/41 48/105/41 26/106/41
f 24/99/42 56/41/42 57/101/42 29/100/42
f 20/77/43 55/102/43 64/95/43 31/75/43
f 26/107/44 48/108/44 61/98/44 32/97/44
f 22/76/45 46/96/45 49/104/45 28/103/45
f 30/73/46 65/72/46 54/79/46 23/82/46
usemtl Material.023
f 39/109/47 42/110/47 45/111/47 44/112/47
f 41/113/47 45/111/47 43/114/47 38/115/47
f 43/114/47 45/111/47 42/110/47 37/116/47
f 44/112/47 45/111/47 41/113/47 40/117/47
f 43/114/48 53/118/48 47/119/48 38/115/48
f 44/120/49 51/121/49 48/122/49 39/123/49
f 42/124/50 49/125/50 46/126/50 37/116/50
f 41/127/51 52/128/51 50/129/51 40/130/51
f 39/123/52 48/122/52 49/125/52 42/124/52
f 37/116/53 46/126/53 53/118/53 43/114/53
f 40/131/54 50/132/54 51/121/54 44/120/54
f 38/115/55 47/119/55 52/128/55 41/127/55
