# Blender v3.0.0 OBJ File: ''
# www.blender.org
mtllib boulder.mtl
o Icosphere
v 0.000000 -1.000000 0.000000
v 0.785360 -0.441750 0.580041
v -0.674002 0.085526 1.153722
v -1.068491 -0.618395 -0.060179
v -0.450453 -0.618400 -0.910828
v 0.649556 -0.587477 -0.761822
v 0.238993 0.916697 0.938245
v -0.984625 0.778773 0.426726
v -0.816323 0.518032 -0.516367
v 0.560949 0.478509 -0.799963
v 1.178987 0.478504 0.050686
v 0.139615 1.077734 -0.096043
v -0.336520 -1.021834 0.439816
v 0.425323 -0.850654 0.309011
v 0.324622 -0.520268 0.863327
v 0.950661 -0.494814 -0.175918
v 0.351271 -0.990912 -0.545108
v -0.699794 -1.021832 -0.060179
v -1.211228 -0.290327 0.740096
v -0.336520 -1.021834 -0.560174
v -0.862254 -0.696916 -0.560176
v 0.188818 -0.665995 -1.045109
v 1.297372 0.036758 0.414014
v 1.051071 0.030922 -0.484931
v -0.381065 0.546924 1.155087
v 0.649539 0.005469 0.863332
v -1.393808 0.117153 0.312780
v -1.107097 0.313066 0.824039
v -0.761850 -0.171180 -0.869196
v -1.125122 -0.171180 -0.369191
v 0.513734 -0.140258 -1.045114
v -0.174065 -0.171180 -1.060179
v 0.972750 0.557025 0.550683
v -0.563645 0.954402 0.727767
v -1.027547 0.637410 -0.099454
v -0.071023 0.627838 -0.748968
v 0.972750 0.557025 -0.449311
v -0.070094 1.111735 0.390696
v 0.810291 0.881940 0.050686
v -0.622054 1.049057 0.119827
v -0.342150 0.896848 -0.376478
v 0.447017 0.881943 -0.449309
vt 0.181819 0.000000
vt 0.227273 0.078731
vt 0.136365 0.078731
vt 0.272728 0.157461
vt 0.318182 0.078731
vt 0.363637 0.157461
vt 0.909091 0.000000
vt 0.954545 0.078731
vt 0.863636 0.078731
vt 0.727273 0.000000
vt 0.772727 0.078731
vt 0.681818 0.078731
vt 0.545455 0.000000
vt 0.590909 0.078731
vt 0.500000 0.078731
vt 0.318182 0.236191
vt 0.090910 0.157461
vt 0.181819 0.157461
vt 0.136365 0.236191
vt 0.818182 0.157461
vt 0.909091 0.157461
vt 0.863636 0.236191
vt 0.636364 0.157461
vt 0.727273 0.157461
vt 0.681818 0.236191
vt 0.454546 0.157461
vt 0.545455 0.157461
vt 0.500000 0.236191
vt 0.227273 0.236191
vt 0.045455 0.236191
vt 0.772727 0.236191
vt 0.590909 0.236191
vt 0.409092 0.236191
vt 0.181819 0.314921
vt 0.272728 0.314921
vt 0.227273 0.393651
vt 0.000000 0.314921
vt 0.090910 0.314921
vt 0.045455 0.393651
vt 0.727273 0.314921
vt 0.818182 0.314921
vt 0.772727 0.393651
vt 0.545455 0.314921
vt 0.636364 0.314921
vt 0.590909 0.393651
vt 0.363637 0.314921
vt 0.454546 0.314921
vt 0.409092 0.393651
vt 0.500000 0.393651
vt 0.454546 0.472382
vt 0.681818 0.393651
vt 0.636364 0.472382
vt 0.863636 0.393651
vt 0.818182 0.472382
vt 0.909091 0.314921
vt 0.136365 0.393651
vt 0.090910 0.472382
vt 0.318182 0.393651
vt 0.272728 0.472382
vt 0.954545 0.236191
vt 1.000000 0.157461
vt 0.409092 0.078731
vt 0.363637 0.000000
vn 0.2393 -0.9615 0.1353
vn 0.6677 -0.7181 0.1964
vn 0.0332 -0.9992 -0.0242
vn 0.0293 -0.9993 0.0213
vn 0.0446 -0.9989 0.0121
vn 0.7029 -0.6822 0.2016
vn 0.2025 -0.1314 0.9704
vn -0.9139 -0.4059 0.0034
vn -0.5746 -0.3304 -0.7488
vn 0.5346 -0.3304 -0.7779
vn 0.5501 -0.3212 0.7708
vn -0.4739 0.2984 0.8285
vn -0.9266 -0.2860 -0.2441
vn -0.3066 -0.1256 -0.9435
vn 0.7369 -0.1876 -0.6495
vn 0.4624 0.8850 0.0542
vn -0.4855 0.8555 0.1799
vn -0.4701 0.7564 -0.4548
vn 0.0985 0.6685 -0.7371
vn 0.7240 0.6617 -0.1947
vn 0.3190 0.9190 -0.2318
vn 0.4911 0.7947 -0.3568
vn 0.4089 0.6617 -0.6284
vn -0.0303 0.8628 -0.5046
vn -0.0407 0.7957 -0.6043
vn -0.3123 0.6476 -0.6950
vn -0.1368 0.9228 -0.3602
vn -0.4750 0.7298 -0.4917
vn -0.6662 0.7321 -0.1423
vn -0.0650 0.9931 -0.0974
vn -0.1927 0.9666 0.1690
vn -0.0508 0.9314 0.3604
vn 0.2700 0.9616 0.0491
vn 0.3766 0.8279 0.4156
vn 0.7240 0.6617 0.1947
vn 0.9210 0.1611 -0.3546
vn 0.6900 0.1507 -0.7079
vn 0.5981 0.2553 -0.7596
vn 0.0103 0.3618 -0.9322
vn -0.2859 0.3796 -0.8799
vn -0.3262 0.4102 -0.8517
vn -0.8274 0.2650 -0.4951
vn -0.8592 0.2522 -0.4451
vn -0.8423 0.5338 -0.0747
vn -0.6159 0.5988 0.5120
vn -0.4874 0.5185 0.7026
vn -0.1557 0.6808 0.7157
vn 0.5233 0.1671 0.8356
vn 0.5603 0.1349 0.8172
vn 0.8461 0.4550 0.2775
vn 0.0038 0.3681 -0.9298
vn 0.0225 -0.0139 -0.9996
vn -0.2153 -0.1871 -0.9585
vn -0.7872 0.2306 -0.5719
vn -0.7947 -0.1876 -0.5773
vn -0.8897 -0.3304 -0.3151
vn -0.8355 0.4669 0.2897
vn -0.8828 0.0882 0.4613
vn -0.6076 -0.0056 0.7942
vn 0.2994 0.0566 0.9525
vn 0.2073 -0.1281 0.9699
vn 0.5346 -0.3304 0.7779
vn 0.9636 0.0409 -0.2643
vn 0.9141 -0.3206 -0.2484
vn 0.8453 -0.3814 -0.3741
vn 0.4713 -0.6617 -0.5831
vn 0.0495 -0.8301 -0.5555
vn -0.1995 -0.6743 -0.7110
vn -0.4089 -0.6617 -0.6284
vn -0.4911 -0.7947 -0.3568
vn -0.7240 -0.6617 -0.1947
vn -0.7305 -0.6676 0.1434
vn -0.5157 -0.7705 0.3747
vn -0.2082 -0.5740 0.7920
vn 0.7054 -0.6602 -0.2581
vn 0.6070 -0.7909 0.0772
vn 0.2379 -0.9615 0.1373
vn -0.1011 -0.5607 0.8218
vn 0.2715 -0.8042 0.5287
vn 0.4428 -0.7326 0.5171
usemtl None
s off
f 1/1/1 14/2/1 13/3/1
f 2/4/2 14/5/2 16/6/2
f 1/7/3 13/8/3 18/9/3
f 1/10/4 18/11/4 20/12/4
f 1/13/5 20/14/5 17/15/5
f 2/4/6 16/6/6 23/16/6
f 3/17/7 15/18/7 25/19/7
f 4/20/8 19/21/8 27/22/8
f 5/23/9 21/24/9 29/25/9
f 6/26/10 22/27/10 31/28/10
f 2/4/11 23/16/11 26/29/11
f 3/17/12 25/19/12 28/30/12
f 4/20/13 27/22/13 30/31/13
f 5/23/14 29/25/14 32/32/14
f 6/26/15 31/28/15 24/33/15
f 7/34/16 33/35/16 38/36/16
f 8/37/17 34/38/17 40/39/17
f 9/40/18 35/41/18 41/42/18
f 10/43/19 36/44/19 42/45/19
f 11/46/20 37/47/20 39/48/20
f 39/48/21 42/49/21 12/50/21
f 39/48/22 37/47/22 42/49/22
f 37/47/23 10/43/23 42/49/23
f 42/45/24 41/51/24 12/52/24
f 42/45/25 36/44/25 41/51/25
f 36/44/26 9/40/26 41/51/26
f 41/42/27 40/53/27 12/54/27
f 41/42/28 35/41/28 40/53/28
f 35/41/29 8/55/29 40/53/29
f 40/39/30 38/56/30 12/57/30
f 40/39/31 34/38/31 38/56/31
f 34/38/32 7/34/32 38/56/32
f 38/36/33 39/58/33 12/59/33
f 38/36/34 33/35/34 39/58/34
f 33/35/35 11/46/35 39/58/35
f 24/33/36 37/47/36 11/46/36
f 24/33/37 31/28/37 37/47/37
f 31/28/38 10/43/38 37/47/38
f 32/32/39 36/44/39 10/43/39
f 32/32/40 29/25/40 36/44/40
f 29/25/41 9/40/41 36/44/41
f 30/31/42 35/41/42 9/40/42
f 30/31/43 27/22/43 35/41/43
f 27/22/44 8/55/44 35/41/44
f 28/30/45 34/38/45 8/37/45
f 28/30/46 25/19/46 34/38/46
f 25/19/47 7/34/47 34/38/47
f 26/29/48 33/35/48 7/34/48
f 26/29/49 23/16/49 33/35/49
f 23/16/50 11/46/50 33/35/50
f 31/28/51 32/32/51 10/43/51
f 31/28/52 22/27/52 32/32/52
f 22/27/53 5/23/53 32/32/53
f 29/25/54 30/31/54 9/40/54
f 29/25/55 21/24/55 30/31/55
f 21/24/56 4/20/56 30/31/56
f 27/22/57 28/60/57 8/55/57
f 27/22/58 19/21/58 28/60/58
f 19/21/59 3/61/59 28/60/59
f 25/19/60 26/29/60 7/34/60
f 25/19/61 15/18/61 26/29/61
f 15/18/62 2/4/62 26/29/62
f 23/16/63 24/33/63 11/46/63
f 23/16/64 16/6/64 24/33/64
f 16/6/65 6/26/65 24/33/65
f 17/15/66 22/27/66 6/26/66
f 17/15/67 20/14/67 22/27/67
f 20/14/68 5/23/68 22/27/68
f 20/12/69 21/24/69 5/23/69
f 20/12/70 18/11/70 21/24/70
f 18/11/71 4/20/71 21/24/71
f 18/9/72 19/21/72 4/20/72
f 18/9/73 13/8/73 19/21/73
f 13/8/74 3/61/74 19/21/74
f 16/6/75 17/62/75 6/26/75
f 16/6/76 14/5/76 17/62/76
f 14/5/77 1/63/77 17/62/77
f 13/3/78 15/18/78 3/17/78
f 13/3/79 14/2/79 15/18/79
f 14/2/80 2/4/80 15/18/80
