# Blender v3.0.0 OBJ File: 'helicopter.blend'
# www.blender.org
mtllib helicopter.mtl
o Helicopter_Cube
v 0.435344 0.105289 -4.272897
v 0.435344 0.138448 -4.272897
v 0.272036 0.105289 0.974075
v 0.272036 0.213594 0.974075
v -0.631313 0.105289 -4.321890
v -0.631313 0.255823 -4.321890
v -0.435344 0.105289 0.680120
v -0.435344 0.213594 0.680120
v -0.614983 0.255823 -1.829050
v 0.465435 0.105289 -1.842494
v -0.614983 0.105289 -1.829050
v 0.465435 0.138448 -1.842494
v -0.843614 0.105289 -3.271440
v 0.827283 0.138448 -3.271440
v -0.843614 0.255823 -3.271440
v 0.827283 0.105289 -3.271440
v -0.843614 0.105289 -3.992634
v 0.614982 0.138448 -3.992634
v -0.843614 0.255823 -3.992634
v 0.614982 0.105289 -3.992634
v -0.778291 0.255823 -2.550245
v 0.761960 0.105289 -2.550245
v -0.778291 0.105289 -2.550245
v 0.761960 0.138448 -2.550245
v -0.484336 0.264180 -0.386661
v 0.451674 0.105289 -0.386661
v -0.484336 0.105289 -0.386661
v 0.451674 0.213594 -0.386661
v -0.614983 0.213594 0.334534
v 0.614982 0.105289 0.334534
v -0.614983 0.105289 0.334534
v 0.614982 0.213594 0.334534
v -0.582321 0.105289 -1.107855
v 0.210706 0.145071 -1.107855
v -0.582321 0.255823 -1.107855
v 0.210706 0.105289 -1.107855
v -0.065323 0.163256 -4.566852
v -0.081654 0.105289 0.974075
v -0.081654 0.213594 0.974075
v -0.065323 0.105289 -4.566852
v -0.065323 0.163256 -1.829050
v -0.065323 0.105289 -1.829050
v -0.065323 0.105289 -3.271440
v -0.065323 0.163256 -3.271440
v -0.065323 0.163256 -3.992634
v -0.065323 0.105289 -3.992634
v -0.065323 0.105289 -2.550245
v -0.065323 0.163256 -2.550245
v -0.065323 0.199881 -0.386661
v -0.065323 0.105289 -0.386661
v -0.065323 -0.023974 0.334534
v -0.065323 0.105289 -1.107855
v -0.065323 0.135590 -1.107855
v -0.348318 0.184247 -4.444371
v -0.258499 0.105289 0.827098
v -0.340153 0.184247 -1.829050
v -0.454469 0.184247 -3.271440
v -0.454469 0.184247 -3.992634
v -0.421807 0.184247 -2.550245
v -0.274830 0.213594 -0.386661
v -0.323822 0.184247 -1.107855
v -0.258499 0.213594 0.827098
v -0.348318 0.105289 -4.444371
v -0.340153 0.105289 -1.829050
v -0.454469 0.105289 -3.271440
v -0.454469 0.105289 -3.992634
v -0.421807 0.105289 -2.550245
v -0.274830 0.105289 -0.386661
v -0.340153 0.040658 0.334534
v -0.323822 0.105289 -1.107855
v -0.489816 0.230213 -4.383130
v -0.346921 0.122690 0.753609
v -0.477568 0.230213 -1.829050
v -0.649041 0.230213 -3.271440
v -0.649041 0.230213 -3.992634
v -0.600049 0.230213 -2.550245
v -0.379583 0.242213 -0.386661
v -0.453072 0.230213 -1.107855
v -0.346921 0.191627 0.753609
v -0.489816 0.122690 -4.383130
v -0.477568 0.122690 -1.829050
v -0.649041 0.122690 -3.271440
v -0.649041 0.122690 -3.992634
v -0.600049 0.122690 -2.550245
v -0.379583 0.122690 -0.386661
v -0.477568 0.102121 0.334534
v -0.453072 0.122690 -1.107855
v -0.073979 0.367557 0.334534
v 0.171581 0.334112 0.334534
v -0.076757 0.334112 0.566035
v -0.070569 0.334112 0.050434
v -0.330368 0.334112 0.334534
v 0.360597 0.287706 0.334534
v -0.078926 0.290526 0.746778
v -0.067792 0.287706 -0.180958
v -0.502477 0.287706 0.334534
v -0.211945 0.334112 0.442633
v -0.300376 0.287706 0.531240
v 0.247303 0.319909 0.007842
v 0.033332 0.334112 0.172334
v -0.542887 0.105289 -0.063445
v -0.195733 0.334112 0.187306
v -0.318781 0.287706 0.051823
v -0.542480 0.213594 -0.065693
v -0.438695 0.258855 -0.049290
v 0.221171 0.267554 0.573178
v 0.442885 0.213594 0.655468
v 0.053181 0.334112 0.444907
v 0.444010 0.105289 0.653370
v -0.533329 0.260002 -0.747258
v 0.318978 0.100652 -0.747258
v -0.533329 0.105289 -0.747258
v 0.302761 0.202690 -0.747258
v -0.065323 0.105289 -0.747258
v -0.065323 0.148561 -0.747258
v -0.299326 0.198921 -0.747258
v -0.299326 0.105289 -0.747258
v -0.416327 0.236213 -0.747258
v -0.416327 0.122690 -0.747258
v -0.598652 0.105289 -1.468453
v 0.292409 0.124735 -1.475174
v -0.598652 0.255823 -1.468453
v 0.292409 0.105289 -1.475174
v -0.065323 0.149543 -1.468453
v -0.065323 0.105289 -1.468453
v -0.331987 0.184247 -1.468453
v -0.331987 0.105289 -1.468453
v -0.465320 0.230213 -1.468453
v -0.465320 0.122690 -1.468453
v 0.179026 0.135514 -1.107855
v 0.223404 0.177259 -0.747258
v 0.304611 0.199881 -0.386661
vt 0.248825 0.937592
vt 0.164871 0.983044
vt 0.189798 0.985017
vt 0.270230 0.958447
vt 0.164871 0.983044
vt 0.189798 0.985017
vt 0.962577 0.319087
vt 0.979477 0.235577
vt 0.979477 0.235577
vt 0.962577 0.319087
vt 0.090089 0.977128
vt 0.034993 0.923448
vt 0.124161 0.941307
vt 0.078634 0.771776
vt 0.056734 0.847888
vt 0.056877 0.847390
vt 0.078634 0.771776
vt 0.928488 0.111518
vt 0.805884 0.081322
vt 0.805884 0.081322
vt 0.928488 0.111518
vt 0.493560 0.300096
vt 0.432336 0.455349
vt 0.432336 0.455349
vt 0.493560 0.300096
vt 0.622429 0.425653
vt 0.512974 0.537996
vt 0.541325 0.675110
vt 0.598596 0.621417
vt 0.598596 0.621417
vt 0.541325 0.675110
vt 0.705725 0.506808
vt 0.577191 0.600562
vt 0.733491 0.533859
vt 0.932268 0.289557
vt 0.822812 0.401900
vt 0.853122 0.431430
vt 0.841340 0.200966
vt 0.731884 0.313309
vt 0.592840 0.177839
vt 0.735366 0.097716
vt 0.592840 0.177839
vt 0.735366 0.097716
vt 0.733491 0.533859
vt 0.853122 0.431430
vt 0.966730 0.204562
vt 0.270230 0.958447
vt 0.319679 0.885098
vt 0.319401 0.885511
vt 0.291453 0.650647
vt 0.213528 0.684218
vt 0.213528 0.684218
vt 0.288926 0.648185
vt 0.348791 0.706511
vt 0.294063 0.762682
vt 0.236437 0.706537
vt 0.303815 0.662691
vt 0.403468 0.759782
vt 0.343016 0.810377
vt 0.359334 0.826276
vt 0.421694 0.777540
vt 0.520555 0.654875
vt 0.463919 0.709188
vt 0.484053 0.728804
vt 0.458246 0.594167
vt 0.403518 0.650339
vt 0.365455 0.613254
vt 0.403541 0.538827
vt 0.360520 0.608446
vt 0.360520 0.608446
vt 0.403541 0.538827
vt 0.421694 0.777540
vt 0.484053 0.728804
vt 0.499785 0.634639
vt 0.443786 0.689571
vt 0.403518 0.650339
vt 0.458246 0.594167
vt 0.184608 0.875025
vt 0.294063 0.762682
vt 0.348791 0.706511
vt 0.385242 0.742025
vt 0.326699 0.794479
vt 0.792503 0.372370
vt 0.677960 0.479756
vt 0.622429 0.425653
vt 0.731884 0.313309
vt 0.841340 0.200966
vt 0.953983 0.173547
vt 0.901958 0.260026
vt 0.512974 0.537996
vt 0.555785 0.579707
vt 0.953983 0.173547
vt 0.139943 0.981072
vt 0.191369 0.941341
vt 0.090089 0.977128
vt 0.034993 0.923448
vt 0.185956 0.876339
vt 0.227267 0.871883
vt 0.225895 0.915251
vt 0.966730 0.204562
vt 0.705725 0.506808
vt 0.577191 0.600562
vt 0.932268 0.289557
vt 0.822812 0.401900
vt 0.403468 0.759782
vt 0.343016 0.810377
vt 0.520555 0.654875
vt 0.463919 0.709188
vt 0.443786 0.689571
vt 0.499785 0.634639
vt 0.227419 0.916736
vt 0.326699 0.794479
vt 0.385242 0.742025
vt 0.677960 0.479756
vt 0.792503 0.372370
vt 0.901958 0.260026
vt 0.555785 0.579707
vt 0.139943 0.981072
vt 0.359334 0.826276
vt 0.185491 0.776688
vt 0.118260 0.810384
vt 0.228543 0.831566
vt 0.193857 0.834786
vt 0.263228 0.795100
vt 0.266997 0.869454
vt 0.151254 0.912823
vt 0.191041 0.914117
vt 0.147704 0.839071
vt 0.149397 0.874233
vt 0.103760 0.868719
vt 0.252705 0.941372
vt 0.301022 0.871902
vn 0.0624 -0.9980 0.0015
vn -0.6392 0.0000 0.7691
vn -0.8404 0.0000 -0.5419
vn 0.0000 0.9472 0.3206
vn 0.8813 0.0000 0.4726
vn 0.5063 0.0000 -0.8624
vn 0.9223 0.0000 0.3864
vn 0.0366 0.9993 0.0076
vn -0.9990 0.0000 0.0452
vn 0.1096 -0.9937 -0.0217
vn 0.0891 -0.9960 0.0000
vn 0.0315 0.9995 -0.0046
vn 0.9593 0.0000 -0.2824
vn -0.9959 0.0000 0.0902
vn 0.8419 0.0000 -0.5396
vn 0.0443 0.9990 -0.0093
vn 0.1134 -0.9918 0.0585
vn -1.0000 0.0000 0.0000
vn -0.9753 0.0000 0.2208
vn 0.0929 -0.9956 -0.0074
vn 0.0288 0.9996 0.0013
vn 0.9959 0.0000 0.0902
vn -0.9840 0.0000 -0.1783
vn 0.9286 0.0716 -0.3641
vn -0.0433 0.9943 -0.0971
vn 0.1550 -0.9877 -0.0184
vn -0.8873 0.0000 0.4612
vn 0.9753 0.0000 -0.2208
vn 0.0587 -0.9983 -0.0049
vn 0.1314 -0.9913 -0.0052
vn 0.0414 0.9991 0.0108
vn 0.9761 0.0000 0.2171
vn -0.9909 0.0000 0.1346
vn 0.1567 0.9875 0.0173
vn 0.0000 -1.0000 0.0000
vn 0.1068 -0.9892 -0.1007
vn -0.0051 -1.0000 0.0074
vn 0.1423 0.9852 -0.0950
vn 0.0562 0.9984 -0.0013
vn 0.0635 0.9980 0.0066
vn 0.0539 0.9985 0.0000
vn 0.0664 0.9978 -0.0038
vn -0.3972 0.0000 -0.9177
vn -0.3032 0.9094 0.2846
vn 0.0000 0.0000 1.0000
vn 0.1229 -0.9833 0.1339
vn -0.1285 0.9847 -0.1175
vn 0.2794 0.9594 -0.0395
vn 0.2299 0.9732 0.0000
vn 0.2776 0.9567 0.0875
vn 0.2394 0.9708 -0.0136
vn 0.2845 0.9573 -0.0516
vn 0.3304 0.9438 -0.0094
vn -0.1310 -0.9817 -0.1379
vn -0.1955 -0.9647 0.1765
vn 0.1914 0.9815 -0.0076
vn 0.2019 0.9787 -0.0378
vn 0.1361 0.9906 -0.0108
vn 0.1653 0.9825 0.0853
vn 0.1305 0.9914 0.0000
vn 0.1601 0.9866 -0.0317
vn -0.1314 -0.9913 0.0037
vn -0.3084 -0.9469 -0.0908
vn -0.1550 -0.9878 0.0132
vn -0.0929 -0.9957 0.0053
vn -0.1091 -0.9934 -0.0344
vn -0.0891 -0.9960 0.0000
vn -0.1096 -0.9939 0.0155
vn -0.3743 -0.9112 0.1723
vn 0.3231 0.9447 -0.0563
vn 0.1341 0.9844 -0.1143
vn -0.1816 0.9658 -0.1848
vn -0.1281 0.9818 0.1403
vn 0.1336 0.9806 0.1433
vn -0.0973 0.9635 -0.2492
vn 0.0258 0.9902 -0.1375
vn -0.2326 0.9433 0.2369
vn 0.2220 0.9502 0.2189
vn -0.2452 0.9345 0.2579
vn -0.3741 0.8892 0.2634
vn -0.0885 0.9493 -0.3017
vn 0.1450 0.9894 -0.0094
vn -0.2253 0.9599 -0.1668
vn -0.3894 0.9184 -0.0705
vn -0.1134 0.9931 0.0310
vn -0.3544 0.9262 -0.1285
vn 0.0483 0.9928 -0.1097
vn 0.1640 0.9802 0.1111
vn -0.0868 0.9210 0.3798
vn 0.2071 0.9514 0.2280
vn 0.2300 0.9595 0.1626
vn -0.1399 -0.9901 0.0119
vn 0.1965 0.9798 -0.0372
vn 0.3198 0.9459 -0.0543
vn 0.1969 0.9794 -0.0442
vn -0.0070 -1.0000 -0.0054
vn 0.1399 -0.9900 -0.0166
vn -0.0535 0.9960 -0.0723
vn 0.9557 0.1093 -0.2735
vn -0.1275 -0.9918 0.0036
vn 0.1859 0.9825 -0.0074
vn 0.3215 0.9469 -0.0091
vn 0.1023 0.9946 0.0178
vn 0.9047 0.0000 0.4261
vn 0.0568 0.9971 0.0511
vn 0.1275 -0.9918 -0.0051
vn -0.2868 0.9509 -0.1164
vn 0.0446 0.9454 -0.3229
vn -0.2997 0.9511 -0.0743
vn -0.1704 0.9853 0.0085
usemtl Material
s off
f 86/1/1 72/2/1 7/3/1 31/4/1
f 79/5/2 8/6/2 7/3/2 72/2/2
f 19/7/3 6/8/3 5/9/3 17/10/3
f 39/11/4 4/12/4 94/13/4
f 32/14/5 107/15/5 109/16/5 30/17/5
f 37/18/6 2/19/6 1/20/6 40/21/6
f 24/22/7 12/23/7 10/24/7 22/25/7
f 48/26/8 41/27/8 12/23/8 24/22/8
f 122/28/9 9/29/9 11/30/9 120/31/9
f 84/32/10 81/33/10 11/30/10 23/34/10
f 83/35/11 82/36/11 13/37/11 17/10/11
f 45/38/12 44/39/12 14/40/12 18/41/12
f 18/41/13 14/40/13 16/42/13 20/43/13
f 21/44/14 15/45/14 13/37/14 23/34/14
f 2/19/15 18/41/15 20/43/15 1/20/15
f 37/18/16 45/38/16 18/41/16 2/19/16
f 80/46/17 83/35/17 17/10/17 5/9/17
f 15/45/18 19/7/18 17/10/18 13/37/18
f 9/29/19 21/44/19 23/34/19 11/30/19
f 82/36/20 84/32/20 23/34/20 13/37/20
f 44/39/21 48/26/21 24/22/21 14/40/21
f 14/40/22 24/22/22 22/25/22 16/42/22
f 29/47/23 104/48/23 101/49/23 31/4/23
f 113/50/24 28/51/24 26/52/24 111/53/24
f 115/54/25 49/55/25 132/56/25 131/57/25
f 119/58/26 85/59/26 27/60/26 112/61/26
f 8/6/27 29/47/27 31/4/27 7/3/27
f 28/51/28 32/14/28 30/17/28 26/52/28
f 85/59/29 86/1/29 31/4/29 101/49/29 27/60/29
f 129/62/30 87/63/30 33/64/30 120/31/30
f 124/65/31 53/66/31 130/67/31 121/68/31
f 121/68/32 34/69/32 36/70/32 123/71/32
f 110/72/33 35/73/33 33/64/33 112/61/33
f 126/74/34 61/75/34 53/66/34 124/65/34
f 123/71/35 36/70/35 52/76/35 125/77/35
f 26/52/36 30/17/36 51/78/36 50/79/36
f 111/53/37 26/52/37 50/79/37 114/80/37
f 116/81/38 60/82/38 49/55/38 115/54/38
f 57/83/39 59/84/39 48/26/39 44/39/39
f 16/42/35 22/25/35 47/85/35 43/86/35
f 1/20/35 20/43/35 46/87/35 40/21/35
f 54/88/40 58/89/40 45/38/40 37/18/40
f 58/89/41 57/83/41 44/39/41 45/38/41
f 20/43/35 16/42/35 43/86/35 46/87/35
f 22/25/35 10/24/35 42/90/35 47/85/35
f 59/84/42 56/91/42 41/27/42 48/26/42
f 54/88/43 37/18/43 40/21/43 63/92/43
f 62/93/44 39/11/44 94/13/44 98/94/44 79/5/44
f 4/12/45 39/11/45 38/95/45 3/96/45
f 30/17/46 109/16/46 3/96/46 38/95/46 51/78/46
f 88/97/47 102/98/47 92/99/47
f 71/100/43 54/88/43 63/92/43 80/46/43
f 76/101/48 73/102/48 56/91/48 59/84/48
f 75/103/49 74/104/49 57/83/49 58/89/49
f 71/100/50 75/103/50 58/89/50 54/88/50
f 74/104/51 76/101/51 59/84/51 57/83/51
f 118/105/52 77/106/52 60/82/52 116/81/52
f 128/107/53 78/108/53 61/75/53 126/74/53
f 125/77/35 52/76/35 70/109/35 127/110/35
f 50/79/54 51/78/54 69/111/54 68/112/54
f 114/80/35 50/79/35 68/112/35 117/113/35
f 43/86/35 47/85/35 67/114/35 65/115/35
f 40/21/35 46/87/35 66/116/35 63/92/35
f 46/87/35 43/86/35 65/115/35 66/116/35
f 47/85/35 42/90/35 64/117/35 67/114/35
f 39/11/2 62/93/2 55/118/2 38/95/2
f 51/78/55 38/95/55 55/118/55 69/111/55
f 122/28/56 35/73/56 78/108/56 128/107/56
f 110/72/57 25/119/57 77/106/57 118/105/57
f 15/45/58 21/44/58 76/101/58 74/104/58
f 6/8/59 19/7/59 75/103/59 71/100/59
f 19/7/60 15/45/60 74/104/60 75/103/60
f 21/44/61 9/29/61 73/102/61 76/101/61
f 6/8/43 71/100/43 80/46/43 5/9/43
f 127/110/62 70/109/62 87/63/62 129/62/62
f 68/112/63 69/111/63 86/1/63 85/59/63
f 117/113/64 68/112/64 85/59/64 119/58/64
f 65/115/65 67/114/65 84/32/65 82/36/65
f 63/92/66 66/116/66 83/35/66 80/46/66
f 66/116/67 65/115/67 82/36/67 83/35/67
f 67/114/68 64/117/68 81/33/68 84/32/68
f 62/93/2 79/5/2 72/2/2 55/118/2
f 69/111/69 55/118/69 72/2/69 86/1/69
f 32/14/70 28/51/70 99/120/70 93/121/70
f 91/122/71 88/97/71 100/123/71
f 91/122/72 95/124/72 103/125/72 102/98/72
f 90/126/73 88/97/73 97/127/73
f 89/128/74 88/97/74 108/129/74
f 95/124/75 49/55/75 60/82/75 103/125/75
f 95/124/76 91/122/76 100/123/76 99/120/76
f 94/13/77 90/126/77 97/127/77 98/94/77
f 93/121/78 89/128/78 108/129/78 106/130/78
f 88/97/73 92/99/73 97/127/73
f 97/127/79 92/99/79 96/131/79 98/94/79
f 98/94/80 96/131/80 29/47/80 8/6/80
f 28/51/81 132/56/81 99/120/81
f 100/123/82 89/128/82 93/121/82 99/120/82
f 88/97/71 89/128/71 100/123/71
f 103/125/83 96/131/83 92/99/83 102/98/83
f 104/48/23 25/119/23 27/60/23 101/49/23
f 102/98/47 88/97/47 91/122/47
f 104/48/84 29/47/84 105/132/84
f 77/106/85 25/119/85 104/48/85 105/132/85
f 29/47/86 96/131/86 103/125/86 105/132/86
f 60/82/87 77/106/87 105/132/87 103/125/87
f 4/12/88 107/15/88 106/130/88 94/13/88
f 98/94/89 8/6/89 79/5/89
f 108/129/90 90/126/90 94/13/90 106/130/90
f 107/15/91 32/14/91 93/121/91 106/130/91
f 88/97/74 90/126/74 108/129/74
f 107/15/5 4/12/5 3/96/5 109/16/5
f 70/109/92 117/113/92 119/58/92 87/63/92
f 35/73/93 110/72/93 118/105/93 78/108/93
f 52/76/35 114/80/35 117/113/35 70/109/35
f 78/108/94 118/105/94 116/81/94 61/75/94
f 61/75/95 116/81/95 115/54/95 53/66/95
f 36/70/96 111/53/96 114/80/96 52/76/96
f 25/119/33 110/72/33 112/61/33 27/60/33
f 87/63/97 119/58/97 112/61/97 33/64/97
f 53/66/98 115/54/98 131/57/98 130/67/98
f 34/69/99 113/50/99 111/53/99 36/70/99
f 64/117/100 127/110/100 129/62/100 81/33/100
f 9/29/101 122/28/101 128/107/101 73/102/101
f 42/90/35 125/77/35 127/110/35 64/117/35
f 73/102/102 128/107/102 126/74/102 56/91/102
f 10/24/35 123/71/35 125/77/35 42/90/35
f 56/91/103 126/74/103 124/65/103 41/27/103
f 12/23/104 121/68/104 123/71/104 10/24/104
f 41/27/105 124/65/105 121/68/105 12/23/105
f 81/33/106 129/62/106 120/31/106 11/30/106
f 35/73/9 122/28/9 120/31/9 33/64/9
f 130/67/107 34/69/107 121/68/107
f 132/56/108 49/55/108 95/124/108 99/120/108
f 131/57/109 113/50/109 34/69/109 130/67/109
f 132/56/110 28/51/110 113/50/110 131/57/110
