# Blender v3.0.0 OBJ File: ''
# www.blender.org
mtllib river.mtl
o Cube_Cube.001
v 0.897852 -0.019359 2.834362
v 0.897852 0.018526 2.834362
v -0.415174 -0.018942 -0.090270
v -0.415174 0.018942 -0.090270
v 2.095048 -0.019359 1.218590
v 2.095048 0.018526 1.218590
v 1.584826 -0.018942 -0.090270
v 1.584826 0.018942 -0.090270
v 0.897852 -0.000417 2.834362
v -0.415174 0.000000 -0.090270
v 1.584826 0.000000 -0.090270
v 2.095048 -0.000417 1.218590
v 0.584826 -0.018942 -0.090270
v 0.584826 0.018942 -0.090270
v 1.527640 -0.019359 2.022577
v 1.527640 0.018526 2.022577
v 1.527640 -0.000417 2.022577
v 0.584826 0.000000 -0.090270
v -0.148635 -0.018942 1.439834
v -0.148635 0.034482 1.439834
v 1.705509 -0.018942 0.697685
v 1.705509 0.018942 0.697685
v 1.705509 0.000000 0.697685
v -0.148635 0.000000 1.439834
v 0.772733 0.018942 1.072876
v 0.772733 -0.018942 1.072876
v 0.369277 -0.018942 2.259431
v 1.892334 0.018942 1.030328
v 1.892334 0.000000 1.030328
v 1.080121 0.046331 1.613689
v 1.080121 -0.018942 1.613689
v 0.369277 0.036191 2.259431
v 1.892334 -0.018942 1.030328
v 0.369277 0.000000 2.259431
v -0.379618 0.035209 0.509151
v 1.611626 -0.018942 0.322210
v -0.379618 0.000000 0.509151
v -0.379618 -0.018942 0.509151
v 1.611626 0.018942 0.322210
v 1.611626 0.000000 0.322210
v 0.616004 0.018942 0.415681
v 0.616004 -0.018942 0.415681
v 0.090877 0.018942 1.892626
v 1.746494 -0.018942 0.827275
v 0.090877 0.000000 1.892626
v 0.090877 -0.018942 1.892626
v 1.746494 0.018942 0.827275
v 1.746494 0.000000 0.827275
v 0.910887 0.009392 1.387242
v 0.910887 -0.018942 1.387242
v -0.288930 -0.018942 0.988740
v 1.639004 0.044183 0.456694
v 1.639004 0.000000 0.456694
v 0.675037 -0.008940 0.722717
v 0.675037 -0.018942 0.722717
v -0.288930 0.018942 0.988740
v 1.639004 -0.018942 0.456694
v -0.288930 0.000000 0.988740
v -0.402985 0.018942 0.260246
v 1.588259 -0.018942 0.073304
v -0.402985 0.000000 0.260246
v -0.402985 -0.018942 0.260246
v 1.588259 0.043169 0.073304
v 1.588259 0.000000 0.073304
v 0.592637 0.008493 0.166775
v 0.592637 -0.018942 0.166775
v 0.583788 -0.019359 2.546303
v 1.991522 0.018526 1.102080
v 1.338340 0.018526 1.859281
v 1.338340 -0.019359 1.859281
v 0.583788 0.018526 2.546303
v 1.991522 -0.019359 1.102080
v 0.583788 -0.000417 2.546303
vt 0.578865 0.436369
vt 0.587945 0.427933
vt 0.587114 0.405330
vt 0.578123 0.416101
vt 0.497168 0.418923
vt 0.496842 0.408476
vt 0.406570 0.411622
vt 0.416213 0.421745
vt 0.502832 0.581084
vt 0.503158 0.589326
vt 0.593759 0.586157
vt 0.584054 0.578243
vt 0.501879 0.554908
vt 0.430060 0.557418
vt 0.430661 0.575354
vt 0.502505 0.572841
vt 0.499822 0.874719
vt 0.999984 0.874114
vt 0.999997 0.999989
vt 0.499992 1.000003
vt 0.574350 0.570329
vt 0.497495 0.429370
vt 0.425857 0.431868
vt 0.569785 0.444804
vt 0.569133 0.426872
vt 0.421609 0.583925
vt 0.000047 0.874606
vt -0.000008 1.000002
vt 0.573698 0.552397
vt 0.412558 0.592496
vt 0.571089 0.480669
vt 0.499374 0.483172
vt 0.500000 0.501106
vt 0.571741 0.498601
vt 0.000161 0.373816
vt 0.499495 0.374217
vt 0.499311 0.498869
vt 0.000212 0.498420
vt 0.572393 0.516533
vt 0.581830 0.517440
vt 0.581089 0.497172
vt 0.427658 0.485675
vt 0.418237 0.482562
vt 0.418911 0.502835
vt 0.428259 0.503611
vt 0.999959 0.372369
vt 0.999948 0.496491
vt 0.408815 0.479450
vt 0.409564 0.502059
vt 0.591267 0.518347
vt 0.590436 0.495744
vt 0.583313 0.557975
vt 0.592928 0.563554
vt 0.592097 0.540950
vt 0.582571 0.537708
vt 0.573045 0.534465
vt 0.500626 0.519040
vt 0.501253 0.536974
vt 0.000157 0.623815
vt 0.499482 0.624152
vt 0.499652 0.749436
vt 0.000102 0.749211
vt 0.428859 0.521546
vt 0.419586 0.523107
vt 0.420260 0.543380
vt 0.429460 0.539482
vt 0.999960 0.622365
vt 0.999972 0.748240
vt 0.410312 0.524668
vt 0.411061 0.547277
vt 0.416888 0.442017
vt 0.407318 0.434231
vt 0.408067 0.456841
vt 0.417562 0.462290
vt 0.498121 0.447304
vt 0.426457 0.449804
vt 0.427058 0.467739
vt 0.498747 0.465238
vt 0.499863 0.124912
vt 0.999981 0.124126
vt 0.999970 0.248248
vt 0.499679 0.249564
vt 0.000058 0.124610
vt 0.000109 0.249213
vt 0.570437 0.462737
vt 0.580347 0.476904
vt 0.579606 0.456637
vt 0.589606 0.473140
vt 0.588775 0.450537
vt 0.000006 0.000006
vt 0.500047 0.000260
vt 0.999992 0.000004
vt 0.411809 0.569886
vn -0.9994 0.0000 0.0348
vn 0.0000 0.0000 -1.0000
vn 0.7901 0.0000 0.6130
vn 0.0000 -1.0000 0.0000
vn 0.0000 1.0000 0.0000
vn 0.8170 0.0000 0.5766
vn -0.0270 0.9996 0.0030
vn -0.8840 0.0000 0.4676
vn 0.9640 0.0000 -0.2660
vn 0.0044 0.9985 -0.0554
vn -0.8009 0.0000 0.5989
vn -0.0323 0.9975 -0.0621
vn 0.8122 0.0000 -0.5834
vn -0.0439 0.9974 -0.0579
vn 0.9956 0.0000 -0.0935
vn 0.0083 0.9985 -0.0544
vn -0.0147 0.9995 0.0290
vn -0.9826 0.0000 0.1858
vn 0.9535 0.0000 -0.3015
vn 0.0247 0.9995 0.0205
vn 0.0049 0.9998 0.0195
vn -0.7965 0.0000 0.6046
vn -0.9549 0.0000 0.2970
vn 0.9799 0.0000 -0.1995
vn 0.0317 0.9982 0.0500
vn -0.0251 0.9996 0.0109
vn -0.0189 0.9993 -0.0322
vn 0.9998 0.0000 -0.0210
vn 0.0060 0.9998 0.0170
vn -0.9956 0.0000 0.0935
vn -0.6759 0.0000 0.7370
vn -0.0008 -1.0000 -0.0009
vn 0.0492 0.9982 0.0334
vn 0.6805 0.0000 -0.7327
vn 0.0391 0.9980 0.0505
vn -0.0012 -1.0000 -0.0013
usemtl Material.001
s off
f 61/1/1 59/2/1 4/3/1 10/4/1
f 18/5/2 14/6/2 8/7/2 11/8/2
f 17/9/3 16/10/3 2/11/3 9/12/3
f 70/13/4 72/14/4 5/15/4 15/16/4
f 69/17/5 71/18/5 2/19/5 16/20/5
f 15/16/3 17/9/3 9/12/3 1/21/3
f 13/22/2 18/5/2 11/8/2 7/23/2
f 62/24/1 61/1/1 10/4/1 3/25/1
f 3/25/2 10/4/2 18/5/2 13/22/2
f 5/15/6 12/26/6 17/9/6 15/16/6
f 68/27/5 69/17/5 16/20/5 6/28/5
f 67/29/4 70/13/4 15/16/4 1/21/4
f 12/26/6 6/30/6 16/10/6 17/9/6
f 10/4/2 4/3/2 14/6/2 18/5/2
f 51/31/4 55/32/4 26/33/4 19/34/4
f 52/35/7 54/36/7 25/37/7 22/38/7
f 46/39/8 45/40/8 24/41/8 19/34/8
f 57/42/9 53/43/9 23/44/9 21/45/9
f 54/36/10 56/46/10 20/47/10 25/37/10
f 55/32/4 57/42/4 21/45/4 26/33/4
f 53/43/9 52/48/9 22/49/9 23/44/9
f 45/40/8 43/50/8 20/51/8 24/41/8
f 73/52/11 71/53/11 32/54/11 34/55/11
f 67/29/11 73/52/11 34/55/11 27/56/11
f 46/39/4 50/57/4 31/58/4 27/56/4
f 47/59/12 49/60/12 30/61/12 28/62/12
f 44/63/13 48/64/13 29/65/13 33/66/13
f 49/60/14 43/67/14 32/68/14 30/61/14
f 50/57/4 44/63/4 33/66/4 31/58/4
f 48/64/13 47/69/13 28/70/13 29/65/13
f 64/71/15 63/72/15 39/73/15 40/74/15
f 66/75/4 60/76/4 36/77/4 42/78/4
f 65/79/16 59/80/16 35/81/16 41/82/16
f 60/76/15 64/71/15 40/74/15 36/77/15
f 63/83/17 65/79/17 41/82/17 39/84/17
f 62/24/4 66/75/4 42/78/4 38/85/4
f 51/31/18 58/86/18 37/87/18 38/85/18
f 58/86/18 56/88/18 35/89/18 37/87/18
f 23/44/19 22/49/19 47/69/19 48/64/19
f 26/33/4 21/45/4 44/63/4 50/57/4
f 25/37/20 20/47/20 43/67/20 49/60/20
f 21/45/19 23/44/19 48/64/19 44/63/19
f 22/38/21 25/37/21 49/60/21 47/59/21
f 19/34/4 26/33/4 50/57/4 46/39/4
f 34/55/22 32/54/22 43/50/22 45/40/22
f 27/56/22 34/55/22 45/40/22 46/39/22
f 24/41/23 20/51/23 56/88/23 58/86/23
f 19/34/23 24/41/23 58/86/23 51/31/23
f 40/74/24 39/73/24 52/48/24 53/43/24
f 42/78/4 36/77/4 57/42/4 55/32/4
f 41/82/25 35/81/25 56/46/25 54/36/25
f 36/77/24 40/74/24 53/43/24 57/42/24
f 39/84/26 41/82/26 54/36/26 52/35/26
f 38/85/4 42/78/4 55/32/4 51/31/4
f 3/25/4 13/22/4 66/75/4 62/24/4
f 8/90/27 14/91/27 65/79/27 63/83/27
f 7/23/28 11/8/28 64/71/28 60/76/28
f 14/91/29 4/92/29 59/80/29 65/79/29
f 13/22/4 7/23/4 60/76/4 66/75/4
f 11/8/28 8/7/28 63/72/28 64/71/28
f 38/85/30 37/87/30 61/1/30 62/24/30
f 37/87/30 35/89/30 59/2/30 61/1/30
f 1/21/31 9/12/31 73/52/31 67/29/31
f 9/12/31 2/11/31 71/53/31 73/52/31
f 27/56/32 31/58/32 70/13/32 67/29/32
f 28/62/33 30/61/33 69/17/33 68/27/33
f 29/65/34 28/70/34 68/93/34 6/30/34 12/26/34 5/15/34 72/14/34 33/66/34
f 30/61/35 32/68/35 71/18/35 69/17/35
f 31/58/36 33/66/36 72/14/36 70/13/36
