# Blender v3.0.0 OBJ File: 'treepieces.blend'
# www.blender.org
mtllib straight.mtl
o Straight_Cube.001
v -1.000000 0.543215 -0.543215
v 1.000000 0.543214 -0.543215
v -1.000000 0.543215 0.543215
v 1.000000 0.543214 0.543215
v -1.000000 -0.543214 -0.543215
v 1.000000 -0.543215 -0.543215
v -1.000000 -0.543214 0.543215
v 1.000000 -0.543215 0.543215
v -1.000000 0.000000 0.760500
v 1.000000 -0.000000 0.760500
v 0.141255 0.620064 -0.447583
v -0.000000 -0.543215 -0.543215
v 1.000000 -0.000000 -0.760500
v 0.075784 0.109361 -0.744348
v -1.000000 0.000000 -0.760500
v 1.000000 0.760500 0.000000
v 1.000000 -0.760500 0.000000
v 1.000000 -0.001821 0.022399
v -1.000000 -0.760500 0.000000
v -0.142650 -0.607386 0.431889
v -0.156718 -0.718614 -0.142830
v -0.005754 0.455031 0.616496
v -0.174497 -0.093671 0.714345
v -1.000000 0.760500 0.000000
v -1.000000 0.004057 -0.037072
v -0.033134 0.764653 0.117645
vt 0.625000 0.500000
vt 0.748252 0.500000
vt 0.749066 0.616469
vt 0.625000 0.627622
vt 0.375000 0.750000
vt 0.503496 0.750000
vt 0.511277 0.875000
vt 0.375000 0.875000
vt 0.375000 0.000000
vt 0.499126 0.000000
vt 0.504354 0.125451
vt 0.375000 0.125000
vt 0.125000 0.500000
vt 0.249126 0.500000
vt 0.249581 0.630154
vt 0.125000 0.625000
vt 0.375000 0.500000
vt 0.500000 0.500000
vt 0.518712 0.626879
vt 0.375000 0.625874
vt 0.375000 0.250000
vt 0.500000 0.250000
vt 0.500000 0.371576
vt 0.375000 0.374126
vt 0.499126 1.000000
vt 0.375000 1.000000
vt 0.625000 0.376748
vt 0.625000 0.250000
vt 0.250000 0.750000
vt 0.125000 0.750000
vt 0.625000 0.125871
vt 0.625000 0.000000
vt 0.625000 0.750000
vt 0.625000 0.875000
vt 0.625000 1.000000
vt 0.750000 0.750000
vt 0.875000 0.624129
vt 0.875000 0.750000
vt 0.875000 0.500000
vn -1.0000 0.0000 -0.0000
vn -0.0113 0.2789 0.9603
vn -0.0219 -0.9591 0.2821
vn 1.0000 -0.0000 -0.0000
vn 0.0058 0.9509 -0.3095
vn -0.0266 -0.3287 -0.9441
vn -0.0322 -0.4280 0.9032
vn 0.0085 0.4379 -0.8990
vn 0.0248 -0.3316 -0.9431
vn -0.0105 0.4389 -0.8985
vn 0.0074 -0.9237 -0.3832
vn -0.0089 -0.9227 -0.3855
vn 0.0295 -0.9591 0.2815
vn 0.0132 0.2754 0.9612
vn 0.0446 -0.4259 0.9037
vn 0.0055 0.8925 0.4511
vn -0.0050 0.9504 -0.3111
vn -0.0057 0.8923 0.4513
usemtl Material.001
s off
f 1/1/1 15/2/1 25/3/1 24/4/1
f 4/5/2 22/6/2 23/7/2 10/8/2
f 8/9/3 20/10/3 21/11/3 17/12/3
f 6/13/4 13/14/4 18/15/4 17/16/4
f 2/17/5 11/18/5 26/19/5 16/20/5
f 6/21/6 12/22/6 14/23/6 13/24/6
f 10/8/7 23/7/7 20/25/7 8/26/7
f 11/18/8 14/23/8 15/27/8 1/1/8
f 15/27/9 14/23/9 12/22/9 5/28/9
f 13/24/10 14/23/10 11/18/10 2/17/10
f 10/29/4 18/15/4 16/20/4 4/5/4
f 16/20/4 18/15/4 13/14/4 2/17/4
f 17/16/4 18/15/4 10/29/4 8/30/4
f 17/12/11 21/11/11 12/22/11 6/21/11
f 12/22/12 21/11/12 19/31/12 5/28/12
f 21/11/13 20/10/13 7/32/13 19/31/13
f 23/7/14 22/6/14 3/33/14 9/34/14
f 20/25/15 23/7/15 9/34/15 7/35/15
f 9/36/1 25/3/1 19/37/1 7/38/1
f 19/37/1 25/3/1 15/2/1 5/39/1
f 24/4/1 25/3/1 9/36/1 3/33/1
f 16/20/16 26/19/16 22/6/16 4/5/16
f 26/19/17 11/18/17 1/1/17 24/4/17
f 22/6/18 26/19/18 24/4/18 3/33/18
