# Blender v3.0.0 OBJ File: 'treepieces.blend'
# www.blender.org
mtllib stub.mtl
o Stub_Cube.009
v 1.203229 -0.096070 0.209245
v -1.000000 0.543215 0.543215
v 1.203229 -0.096070 0.002913
v -1.000000 0.543215 -0.543214
v 1.203229 -0.302403 0.209245
v -1.000000 -0.543214 0.543215
v 1.203229 -0.302403 0.002913
v -1.000000 -0.543214 -0.543214
v 1.203229 -0.199237 -0.038353
v -1.000000 0.000000 -0.760500
v 0.000000 0.481021 0.345029
v 0.000000 -0.209256 0.345029
v -1.000000 0.000000 0.760501
v 0.000000 0.126430 0.474784
v 1.203229 -0.199237 0.250511
v -1.000000 0.760500 0.000000
v -1.000000 -0.760500 0.000000
v -1.000000 -0.001821 -0.022398
v 1.203229 -0.343669 0.106079
v -0.006992 -0.209256 -0.345247
v 0.034832 -0.342392 0.001135
v 0.027967 0.481021 -0.345247
v 0.090213 0.135883 -0.472585
v 1.203229 -0.054804 0.106079
v 1.407574 -0.198466 0.113120
v 0.149695 0.614857 -0.005297
v 0.598119 -0.264991 -0.063789
v 0.646721 -0.040839 -0.148091
v 0.601615 0.183313 0.384515
v 0.601615 -0.264991 0.384515
v 0.601615 -0.045565 0.470026
v 0.619031 -0.352193 0.160985
v 0.615598 0.183313 -0.063789
v 0.676462 0.270865 0.157769
vt 0.625000 0.500000
vt 0.749066 0.616469
vt 0.625000 0.627622
vt 0.375000 0.750000
vt 0.503496 0.750000
vt 0.511277 0.875000
vt 0.375000 0.875000
vt 0.375000 0.000000
vt 0.499126 0.000000
vt 0.504354 0.125451
vt 0.375000 0.125000
vt 0.125000 0.500000
vt 0.249126 0.500000
vt 0.249581 0.630154
vt 0.125000 0.625000
vt 0.375000 0.500000
vt 0.500000 0.500000
vt 0.518712 0.626879
vt 0.375000 0.625874
vt 0.375000 0.250000
vt 0.500000 0.250000
vt 0.500000 0.371576
vt 0.375000 0.374126
vt 0.499126 1.000000
vt 0.375000 1.000000
vt 0.562500 0.500000
vt 0.562500 0.374162
vt 0.625000 0.376748
vt 0.562500 0.250000
vt 0.250000 0.750000
vt 0.125000 0.750000
vt 0.564677 0.125661
vt 0.625000 0.125871
vt 0.625000 0.250000
vt 0.562063 0.000000
vt 0.625000 0.000000
vt 0.568138 0.875000
vt 0.564248 0.750000
vt 0.625000 0.750000
vt 0.625000 0.875000
vt 0.562063 1.000000
vt 0.625000 1.000000
vt 0.750000 0.750000
vt 0.875000 0.750000
vt 0.875000 0.624129
vt 0.875000 0.500000
vt 0.571856 0.627250
vt 0.748252 0.500000
vn 0.5390 0.7820 0.3128
vn 0.1959 0.3666 -0.9095
vn 0.3554 -0.8638 -0.3570
vn -1.0000 -0.0000 0.0000
vn 0.1246 0.9162 0.3809
vn 0.2957 -0.3508 0.8885
vn 0.2898 -0.3736 -0.8812
vn 0.3988 0.3271 0.8567
vn -0.0949 -0.3599 0.9281
vn 0.2094 0.3526 0.9121
vn 0.3541 -0.8650 0.3556
vn 0.0488 -0.9286 0.3678
vn -0.0190 -0.9313 -0.3636
vn 0.2774 0.3670 -0.8879
vn 0.0789 -0.3672 -0.9268
vn 0.5677 -0.3057 -0.7643
vn 0.5432 -0.7796 0.3118
vn 0.5541 0.7729 -0.3092
vn 0.1212 0.9166 -0.3811
vn 0.4936 0.7663 0.4112
vn 0.4412 0.8027 -0.4011
vn 0.5581 -0.7704 -0.3082
vn 0.5304 -0.3148 0.7871
vn 0.5662 0.3061 -0.7653
vn 0.5287 0.3152 0.7881
vn 0.5737 0.6810 -0.4551
vn 0.3767 0.8064 0.4559
vn 0.3580 -0.4045 -0.8415
vn 0.5498 0.3688 -0.7494
vn 0.0850 -0.9264 -0.3667
vn -0.1104 -0.9299 0.3509
vn 0.2401 -0.3551 0.9035
vn 0.1074 0.3441 0.9328
usemtl Material.009
s off
f 1/1/1 25/2/1 24/3/1
f 4/4/2 22/5/2 23/6/2 10/7/2
f 8/8/3 20/9/3 21/10/3 17/11/3
f 6/12/4 13/13/4 18/14/4 17/15/4
f 2/16/5 11/17/5 26/18/5 16/19/5
f 6/20/6 12/21/6 14/22/6 13/23/6
f 10/7/7 23/6/7 20/24/7 8/25/7
f 29/26/8 31/27/8 15/28/8 1/1/8
f 31/27/9 14/22/9 12/21/9 30/29/9
f 13/23/10 14/22/10 11/17/10 2/16/10
f 10/30/4 18/14/4 16/19/4 4/4/4
f 16/19/4 18/14/4 13/13/4 2/16/4
f 17/15/4 18/14/4 10/30/4 8/31/4
f 17/11/11 21/10/11 12/21/11 6/20/11
f 30/29/12 32/32/12 19/33/12 5/34/12
f 32/32/13 27/35/13 7/36/13 19/33/13
f 28/37/14 33/38/14 3/39/14 9/40/14
f 27/41/15 28/37/15 9/40/15 7/42/15
f 9/43/16 25/2/16 7/44/16
f 19/45/17 25/2/17 5/46/17
f 24/3/18 25/2/18 3/39/18
f 16/19/19 26/18/19 22/5/19 4/4/19
f 34/47/20 29/26/20 1/1/20 24/3/20
f 33/38/21 34/47/21 24/3/21 3/39/21
f 7/44/22 25/2/22 19/45/22
f 5/46/23 25/2/23 15/48/23
f 3/39/24 25/2/24 9/43/24
f 25/2/25 1/1/25 15/48/25
f 22/5/26 26/18/26 34/47/26 33/38/26
f 26/18/27 11/17/27 29/26/27 34/47/27
f 20/24/28 23/6/28 28/37/28 27/41/28
f 23/6/29 22/5/29 33/38/29 28/37/29
f 21/10/30 20/9/30 27/35/30 32/32/30
f 12/21/31 21/10/31 32/32/31 30/29/31
f 15/28/32 31/27/32 30/29/32 5/34/32
f 11/17/33 14/22/33 31/27/33 29/26/33
